<?xml version="1.0" encoding="UTF-8"?>
<!DOCTYPE svg PUBLIC "-//W3C//DTD SVG 1.1//EN" "http://www.w3.org/Graphics/SVG/1.1/DTD/svg11.dtd">
<svg xmlns="http://www.w3.org/2000/svg" version="1.1" width="1198px" height="324px" style="shape-rendering:geometricPrecision; text-rendering:geometricPrecision; image-rendering:optimizeQuality; fill-rule:evenodd; clip-rule:evenodd" xmlns:xlink="http://www.w3.org/1999/xlink">
<g><path style="opacity:0.992" fill="#d81e26" d="M -0.5,-0.5 C 15.8333,-0.5 32.1667,-0.5 48.5,-0.5C 69.3638,58.9237 90.5305,118.257 112,177.5C 112.5,118.168 112.667,58.8343 112.5,-0.5C 129.833,-0.5 147.167,-0.5 164.5,-0.5C 164.667,100.501 164.5,201.501 164,302.5C 146.438,305.267 128.771,307.6 111,309.5C 109.893,309.415 108.893,309.081 108,308.5C 89.3333,253.833 70.6667,199.167 52,144.5C 51.8333,201.836 51.3333,259.17 50.5,316.5C 34.9906,318.476 19.6573,320.81 4.5,323.5C 2.83333,323.5 1.16667,323.5 -0.5,323.5C -0.5,215.5 -0.5,107.5 -0.5,-0.5 Z"/></g>
<g><path style="opacity:0.987" fill="#d81e25" d="M 212.5,-0.5 C 259.5,-0.5 306.5,-0.5 353.5,-0.5C 353.5,16.5 353.5,33.5 353.5,50.5C 323.833,50.5 294.167,50.5 264.5,50.5C 264.5,72.8333 264.5,95.1667 264.5,117.5C 286.837,117.355 309.17,117.021 331.5,116.5C 331.5,133.833 331.5,151.167 331.5,168.5C 309.454,168.178 287.454,168.511 265.5,169.5C 264.5,194.158 264.167,218.824 264.5,243.5C 294.11,240.904 323.777,239.237 353.5,238.5C 353.5,254.833 353.5,271.167 353.5,287.5C 306.534,291.523 259.534,295.19 212.5,298.5C 212.5,198.833 212.5,99.1667 212.5,-0.5 Z"/></g>
<g><path style="opacity:0.991" fill="#d71e25" d="M 385.5,-0.5 C 437.5,-0.5 489.5,-0.5 541.5,-0.5C 541.5,16.5 541.5,33.5 541.5,50.5C 524.167,50.5 506.833,50.5 489.5,50.5C 489.5,128.167 489.5,205.833 489.5,283.5C 472.167,283.5 454.833,283.5 437.5,283.5C 437.5,205.833 437.5,128.167 437.5,50.5C 420.167,50.5 402.833,50.5 385.5,50.5C 385.5,33.5 385.5,16.5 385.5,-0.5 Z"/></g>
<g><path style="opacity:0.991" fill="#d81f25" d="M 573.5,-0.5 C 620.833,-0.5 668.167,-0.5 715.5,-0.5C 715.5,16.5 715.5,33.5 715.5,50.5C 685.167,50.5 654.833,50.5 624.5,50.5C 624.5,71.8333 624.5,93.1667 624.5,114.5C 647.5,114.5 670.5,114.5 693.5,114.5C 693.5,131.5 693.5,148.5 693.5,165.5C 670.5,165.5 647.5,165.5 624.5,165.5C 624.5,203.833 624.5,242.167 624.5,280.5C 607.5,280.5 590.5,280.5 573.5,280.5C 573.5,186.833 573.5,93.1667 573.5,-0.5 Z"/></g>
<g><path style="opacity:0.99" fill="#d81f25" d="M 746.5,-0.5 C 763.833,-0.5 781.167,-0.5 798.5,-0.5C 798.5,78.1667 798.5,156.833 798.5,235.5C 827.199,236.169 855.865,237.502 884.5,239.5C 884.5,256.5 884.5,273.5 884.5,290.5C 838.531,287.502 792.531,285.168 746.5,283.5C 746.5,188.833 746.5,94.1667 746.5,-0.5 Z"/></g>
<g><path style="opacity:0.986" fill="#d81f26" d="M 925.5,-0.5 C 942.5,-0.5 959.5,-0.5 976.5,-0.5C 976.5,98.8333 976.5,198.167 976.5,297.5C 959.796,296.355 943.13,295.021 926.5,293.5C 925.5,195.502 925.167,97.5023 925.5,-0.5 Z"/></g>
<g><path style="opacity:0.991" fill="#d81e25" d="M 1018.5,-0.5 C 1037.17,-0.5 1055.83,-0.5 1074.5,-0.5C 1085.03,27.2613 1095.87,54.928 1107,82.5C 1118.52,54.8076 1130.02,27.1409 1141.5,-0.5C 1160.17,-0.5 1178.83,-0.5 1197.5,-0.5C 1197.5,0.5 1197.5,1.5 1197.5,2.5C 1175.84,52.6299 1154.84,103.13 1134.5,154C 1155.03,209.78 1176.03,265.28 1197.5,320.5C 1197.5,321.5 1197.5,322.5 1197.5,323.5C 1195.83,323.5 1194.17,323.5 1192.5,323.5C 1174.98,320.412 1157.31,317.412 1139.5,314.5C 1128.36,283.594 1116.53,252.928 1104,222.5C 1091.87,250.417 1080.04,278.417 1068.5,306.5C 1049.84,304.427 1031.17,302.427 1012.5,300.5C 1033.87,250.749 1055.54,201.082 1077.5,151.5C 1057.82,100.808 1038.15,50.1411 1018.5,-0.5 Z"/></g>
</svg>
